<?xml version="1.0" encoding="UTF-8" standalone="no"?><!DOCTYPE svg PUBLIC "-//W3C//DTD SVG 1.1//EN" "http://www.w3.org/Graphics/SVG/1.1/DTD/svg11.dtd"><svg width="100%" height="100%" viewBox="0 0 205 64" version="1.1" xmlns="http://www.w3.org/2000/svg" xmlns:xlink="http://www.w3.org/1999/xlink" xml:space="preserve" xmlns:serif="http://www.serif.com/" style="fill-rule:evenodd;clip-rule:evenodd;stroke-linejoin:round;stroke-miterlimit:2;"><g><g><path d="M43.469,5.656l-0.688,4.969c-1.375,-0.25 -2.739,-0.438 -4.094,-0.563c-1.354,-0.124 -2.677,-0.187 -3.968,-0.187c-1.646,0 -3.313,0.104 -5,0.313c-1.667,0.208 -3.354,0.51 -5.063,0.906l2.969,46.25l-14.125,-1.844l3.5,-44.031l-2.125,0.031c-2.271,0.042 -4.271,-0.063 -6,-0.313c-1.708,-0.25 -3.125,-0.656 -4.25,-1.218c-1.562,-0.792 -2.729,-1.886 -3.5,-3.282c-0.75,-1.395 -1.125,-3.125 -1.125,-5.187l0,-0.781l2.094,-0.719c0.083,2.333 0.958,4.083 2.625,5.25c1.687,1.146 4.146,1.719 7.375,1.719c2.729,-0 6.781,-0.407 12.156,-1.219c5.396,-0.813 9.458,-1.219 12.187,-1.219c1.438,0 2.75,0.104 3.938,0.313c1.188,0.187 2.219,0.458 3.094,0.812Zm-20.625,19.625c-0,-0.75 -0.188,-1.312 -0.563,-1.687c-0.354,-0.375 -0.906,-0.563 -1.656,-0.563c-0.75,0 -1.323,0.188 -1.719,0.563c-0.375,0.375 -0.562,0.937 -0.562,1.687c-0,0.771 0.187,1.344 0.562,1.719c0.396,0.354 0.969,0.531 1.719,0.531c0.75,0 1.302,-0.177 1.656,-0.531c0.375,-0.375 0.563,-0.948 0.563,-1.719Zm0.531,9.313c0,-0.771 -0.281,-1.438 -0.844,-2c-0.541,-0.584 -1.208,-0.875 -2,-0.875c-0.791,-0 -1.468,0.291 -2.031,0.875c-0.563,0.562 -0.844,1.229 -0.844,2c0,0.812 0.282,1.5 0.844,2.062c0.563,0.563 1.24,0.844 2.031,0.844c0.792,0 1.459,-0.281 2,-0.844c0.563,-0.562 0.844,-1.25 0.844,-2.062Zm-0.688,9.812c-0,-0.729 -0.187,-1.281 -0.562,-1.656c-0.354,-0.375 -0.906,-0.563 -1.656,-0.563c-0.75,0.001 -1.323,0.188 -1.719,0.563c-0.375,0.375 -0.563,0.927 -0.563,1.656c0,0.75 0.188,1.313 0.563,1.688c0.396,0.354 0.969,0.531 1.719,0.531c0.75,0 1.302,-0.177 1.656,-0.531c0.375,-0.375 0.562,-0.938 0.562,-1.688Zm38.408,-36.969c-1.437,5.459 -2.646,10.198 -3.625,14.219c-0.958,4 -1.677,7.282 -2.156,9.844c-0.75,4.063 -1.334,8.167 -1.75,12.313c-0.396,4.145 -0.625,8.302 -0.688,12.468l-7.437,0.844c-0.188,-2.083 -0.334,-4.208 -0.438,-6.375c-0.083,-2.188 -0.125,-4.438 -0.125,-6.75c0,-5.792 0.292,-11.917 0.875,-18.375c0.584,-6.458 1.459,-13.24 2.625,-20.344l12.719,2.156Zm-4.875,6.844l-1.125,-1.437c-1.458,2.333 -2.781,4.896 -3.969,7.687c-1.166,2.771 -2.208,5.761 -3.125,8.969l2.844,1.219c0.5,-2.896 1.198,-5.709 2.094,-8.438c0.896,-2.75 1.989,-5.416 3.281,-8Zm60.064,43l-15.532,1.75l1.25,-34.937l-16.343,27.406l-13.969,-16.906c-0.75,3.437 -1.563,6.51 -2.438,9.218c-0.875,2.688 -1.802,5.021 -2.781,7c-1.291,2.625 -2.854,4.98 -4.687,7.063c-1.834,2.104 -3.927,3.948 -6.282,5.531l-1.25,-2.625c2.938,-2.187 5.417,-5.26 7.438,-9.219c2.042,-3.958 3.646,-8.802 4.812,-14.531l6.782,-33.344l16.281,30.438l14.531,-29.438l7,0.25l5.188,52.344Zm-30.219,-17.344l-11.25,-19.437l-1.594,8.312l11,14.407l1.844,-3.282Zm23.594,-6.343l0,-1.219l-1.688,0.625c-0.166,2.958 -0.562,5.854 -1.187,8.687c-0.604,2.813 -1.427,5.553 -2.469,8.219l3.125,0.5c0.771,-3.146 1.333,-6.114 1.687,-8.906c0.355,-2.813 0.532,-5.448 0.532,-7.906Zm49.845,7.468c0,2.834 -0.563,5.344 -1.688,7.532c-1.125,2.166 -2.802,4.01 -5.031,5.531c-1.917,1.312 -4.104,2.292 -6.562,2.937c-2.438,0.646 -5.157,0.969 -8.157,0.969c-1.916,0 -3.937,-0.125 -6.062,-0.375c-2.125,-0.25 -4.344,-0.656 -6.656,-1.219l-2.219,-53.031c1,-0.104 1.979,-0.187 2.937,-0.25c0.979,-0.062 1.917,-0.094 2.813,-0.094c2.583,0 4.979,0.24 7.187,0.719c2.209,0.459 4.229,1.167 6.063,2.125c2.333,1.209 4.073,2.698 5.219,4.469c1.166,1.771 1.75,3.823 1.75,6.156c0,1.021 -0.125,2.063 -0.375,3.125c-0.25,1.042 -0.636,2.094 -1.157,3.156c3.563,1.521 6.438,3.98 8.625,7.375c2.209,3.375 3.313,7 3.313,10.875Zm-19.156,-16.906l-1.375,-16.031c-0.292,-0.292 -0.782,-0.573 -1.469,-0.844c-0.667,-0.291 -1.531,-0.573 -2.594,-0.844l-2.312,22.438c1.75,-0.563 3.27,-1.24 4.562,-2.031c1.313,-0.792 2.375,-1.688 3.188,-2.688Zm8.156,11.844c0,-1.875 -0.354,-3.583 -1.063,-5.125c-0.687,-1.542 -1.729,-2.938 -3.125,-4.188c-1.666,1.48 -3.5,2.709 -5.5,3.688c-2,0.979 -4.177,1.698 -6.531,2.156l-1.844,19.875c2.396,-0.083 4.625,-0.521 6.688,-1.312c2.062,-0.792 3.979,-1.917 5.75,-3.375c1.896,-1.563 3.302,-3.323 4.219,-5.282c0.937,-1.958 1.406,-4.104 1.406,-6.437Zm7.062,4.687c0,-0.729 -0.187,-1.281 -0.562,-1.656c-0.354,-0.375 -0.906,-0.562 -1.656,-0.562c-0.75,-0 -1.313,0.187 -1.688,0.562c-0.375,0.375 -0.562,0.927 -0.562,1.656c0,0.75 0.187,1.313 0.562,1.688c0.375,0.354 0.938,0.531 1.688,0.531c0.75,0 1.302,-0.177 1.656,-0.531c0.375,-0.375 0.562,-0.938 0.562,-1.688Zm-2.312,7.313c0,-0.771 -0.281,-1.438 -0.844,-2c-0.542,-0.563 -1.219,-0.844 -2.031,-0.844c-0.813,0 -1.5,0.281 -2.063,0.844c-0.541,0.562 -0.812,1.229 -0.812,2c0,0.812 0.271,1.5 0.812,2.062c0.563,0.542 1.25,0.813 2.063,0.813c0.812,-0 1.489,-0.271 2.031,-0.813c0.563,-0.562 0.844,-1.25 0.844,-2.062Zm-7,4.781c0,-0.729 -0.188,-1.281 -0.563,-1.656c-0.375,-0.375 -0.937,-0.563 -1.687,-0.563c-0.729,0 -1.281,0.188 -1.656,0.563c-0.375,0.375 -0.563,0.927 -0.563,1.656c0,0.75 0.188,1.313 0.563,1.688c0.375,0.375 0.927,0.562 1.656,0.562c0.75,0 1.312,-0.187 1.687,-0.562c0.375,-0.375 0.563,-0.938 0.563,-1.688Zm-2.25,-18.969c-1.896,2.25 -3.604,4.594 -5.125,7.032c-1.521,2.437 -2.865,4.968 -4.031,7.593l-1.844,0.063c0.958,-2.75 2.125,-5.469 3.5,-8.156c1.396,-2.709 3,-5.386 4.812,-8.032l2.688,1.5Zm60.251,1.375c0,7.396 -1.677,12.938 -5.031,16.625c-3.334,3.688 -8.365,5.532 -15.094,5.532c-3.271,-0 -6.094,-0.417 -8.469,-1.25c-2.375,-0.854 -4.302,-2.125 -5.781,-3.813c-1.375,-1.562 -2.406,-3.562 -3.094,-6c-0.687,-2.437 -1.031,-5.302 -1.031,-8.594c0,-2.729 0.313,-6.802 0.938,-12.218c0.645,-5.438 0.968,-9.521 0.968,-12.25c0,-1.771 -0.135,-3.323 -0.406,-4.657c-0.25,-1.333 -0.635,-2.458 -1.156,-3.375l2.656,-1.187c0.958,1.896 1.719,4.052 2.281,6.469c0.584,2.416 0.979,5.083 1.188,8c0.062,0.916 0.104,2.635 0.125,5.156c0.041,2.521 0.062,5.844 0.062,9.969c0,2.541 0.063,4.708 0.188,6.5c0.146,1.771 0.354,3.156 0.625,4.156c0.583,2.083 1.479,3.646 2.687,4.688c1.209,1.041 2.729,1.562 4.563,1.562c2.125,0 3.916,-0.365 5.375,-1.094c1.479,-0.729 2.625,-1.833 3.437,-3.312c0.584,-1.063 1.021,-2.407 1.313,-4.032c0.312,-1.624 0.469,-3.541 0.469,-5.749c0,-0.417 -0.011,-0.917 -0.032,-1.5c-0.021,-0.584 -0.041,-1.24 -0.062,-1.969c-0.021,-0.834 -0.042,-1.521 -0.063,-2.063l0,-1.281l4.782,-0.375l-0.313,-3.687l-4.531,0.156l-0.156,-3.5l4.468,-0.219l-0.125,-3.625l-4.343,0l-0.157,-3.656l4.5,0.312l0,-3.343l-4.5,-0.407l-0.156,-3.718l12.969,1.281c0.291,8.5 0.51,14.958 0.656,19.375c0.167,4.416 0.25,6.781 0.25,7.094Zm-19.656,-3.782c0,1.084 -0.386,2.011 -1.156,2.782c-0.75,0.77 -1.657,1.156 -2.719,1.156c-1.084,-0 -2,-0.386 -2.75,-1.156c-0.729,-0.792 -1.094,-1.719 -1.094,-2.782c0,-1.041 0.365,-1.948 1.094,-2.718c0.75,-0.771 1.666,-1.157 2.75,-1.157c1.062,0 1.969,0.386 2.719,1.157c0.77,0.75 1.156,1.656 1.156,2.718Z" style="fill:url(#_Linear1);fill-rule:nonzero;"/></g></g><defs><linearGradient id="_Linear1" x1="0" y1="0" x2="1" y2="0" gradientUnits="userSpaceOnUse" gradientTransform="matrix(5.8783e-15,96,-96,5.8783e-15,131.125,-16.5)"><stop offset="0" style="stop-color:#1063f4;stop-opacity:1"/><stop offset="1" style="stop-color:#ed7a1b;stop-opacity:1"/></linearGradient></defs></svg>