<svg width="1733" height="128" viewBox="0 0 1733 128" fill="none" xmlns="http://www.w3.org/2000/svg">
<g filter="url(#filter0_d_1_67)">
<mask id="path-1-inside-1_1_67" fill="white">
<path d="M2 0H1731V124H2V0Z"/>
</mask>
<path d="M2 0H1731V124H2V0Z" fill="white"/>
<path d="M1731 123H2V125H1731V123Z" fill="#F0F2F5" mask="url(#path-1-inside-1_1_67)"/>
<path d="M124.844 36.1562L124.156 41.125C122.781 40.875 121.417 40.6875 120.062 40.5625C118.708 40.4375 117.385 40.375 116.094 40.375C114.448 40.375 112.781 40.4792 111.094 40.6875C109.427 40.8958 107.74 41.1979 106.031 41.5938L109 87.8438L94.875 86L98.375 41.9688L96.25 42C93.9792 42.0417 91.9792 41.9375 90.25 41.6875C88.5417 41.4375 87.125 41.0312 86 40.4688C84.4375 39.6771 83.2708 38.5833 82.5 37.1875C81.75 35.7917 81.375 34.0625 81.375 32V31.2188L83.4688 30.5C83.5521 32.8333 84.4271 34.5833 86.0938 35.75C87.7812 36.8958 90.2396 37.4688 93.4688 37.4688C96.1979 37.4688 100.25 37.0625 105.625 36.25C111.021 35.4375 115.083 35.0312 117.812 35.0312C119.25 35.0312 120.562 35.1354 121.75 35.3438C122.938 35.5312 123.969 35.8021 124.844 36.1562ZM104.219 55.7812C104.219 55.0312 104.031 54.4688 103.656 54.0938C103.302 53.7188 102.75 53.5312 102 53.5312C101.25 53.5312 100.677 53.7188 100.281 54.0938C99.9062 54.4688 99.7188 55.0312 99.7188 55.7812C99.7188 56.5521 99.9062 57.125 100.281 57.5C100.677 57.8542 101.25 58.0312 102 58.0312C102.75 58.0312 103.302 57.8542 103.656 57.5C104.031 57.125 104.219 56.5521 104.219 55.7812ZM104.75 65.0938C104.75 64.3229 104.469 63.6562 103.906 63.0938C103.365 62.5104 102.698 62.2188 101.906 62.2188C101.115 62.2188 100.438 62.5104 99.875 63.0938C99.3125 63.6562 99.0312 64.3229 99.0312 65.0938C99.0312 65.9062 99.3125 66.5938 99.875 67.1562C100.438 67.7188 101.115 68 101.906 68C102.698 68 103.365 67.7188 103.906 67.1562C104.469 66.5938 104.75 65.9062 104.75 65.0938ZM104.062 74.9062C104.062 74.1771 103.875 73.625 103.5 73.25C103.146 72.875 102.594 72.6875 101.844 72.6875C101.094 72.6875 100.521 72.875 100.125 73.25C99.75 73.625 99.5625 74.1771 99.5625 74.9062C99.5625 75.6562 99.75 76.2188 100.125 76.5938C100.521 76.9479 101.094 77.125 101.844 77.125C102.594 77.125 103.146 76.9479 103.5 76.5938C103.875 76.2188 104.062 75.6562 104.062 74.9062ZM142.47 37.9375C141.033 43.3958 139.824 48.1354 138.845 52.1562C137.887 56.1562 137.168 59.4375 136.689 62C135.939 66.0625 135.355 70.1667 134.939 74.3125C134.543 78.4583 134.314 82.6146 134.251 86.7812L126.814 87.625C126.626 85.5417 126.48 83.4167 126.376 81.25C126.293 79.0625 126.251 76.8125 126.251 74.5C126.251 68.7083 126.543 62.5833 127.126 56.125C127.71 49.6667 128.585 42.8854 129.751 35.7812L142.47 37.9375ZM137.595 44.7812L136.47 43.3438C135.012 45.6771 133.689 48.2396 132.501 51.0312C131.335 53.8021 130.293 56.7917 129.376 60L132.22 61.2188C132.72 58.3229 133.418 55.5104 134.314 52.7812C135.21 50.0312 136.303 47.3646 137.595 44.7812ZM197.659 87.7812L182.127 89.5312L183.377 54.5938L167.034 82L153.065 65.0938C152.315 68.5312 151.502 71.6042 150.627 74.3125C149.752 77 148.825 79.3333 147.846 81.3125C146.555 83.9375 144.992 86.2917 143.159 88.375C141.325 90.4792 139.232 92.3229 136.877 93.9062L135.627 91.2812C138.565 89.0938 141.044 86.0208 143.065 82.0625C145.107 78.1042 146.711 73.2604 147.877 67.5312L154.659 34.1875L170.94 64.625L185.471 35.1875L192.471 35.4375L197.659 87.7812ZM167.44 70.4375L156.19 51L154.596 59.3125L165.596 73.7188L167.44 70.4375ZM191.034 64.0938V62.875L189.346 63.5C189.18 66.4583 188.784 69.3542 188.159 72.1875C187.555 75 186.732 77.7396 185.69 80.4062L188.815 80.9062C189.586 77.7604 190.148 74.7917 190.502 72C190.857 69.1875 191.034 66.5521 191.034 64.0938ZM240.879 71.5625C240.879 74.3958 240.316 76.9062 239.191 79.0938C238.066 81.2604 236.389 83.1042 234.16 84.625C232.243 85.9375 230.056 86.9167 227.598 87.5625C225.16 88.2083 222.441 88.5312 219.441 88.5312C217.525 88.5312 215.504 88.4062 213.379 88.1562C211.254 87.9062 209.035 87.5 206.723 86.9375L204.504 33.9062C205.504 33.8021 206.483 33.7188 207.441 33.6562C208.42 33.5938 209.358 33.5625 210.254 33.5625C212.837 33.5625 215.233 33.8021 217.441 34.2812C219.65 34.7396 221.67 35.4479 223.504 36.4062C225.837 37.6146 227.577 39.1042 228.723 40.875C229.889 42.6458 230.473 44.6979 230.473 47.0312C230.473 48.0521 230.348 49.0938 230.098 50.1562C229.848 51.1979 229.462 52.25 228.941 53.3125C232.504 54.8333 235.379 57.2917 237.566 60.6875C239.775 64.0625 240.879 67.6875 240.879 71.5625ZM221.723 54.6562L220.348 38.625C220.056 38.3333 219.566 38.0521 218.879 37.7812C218.212 37.4896 217.348 37.2083 216.285 36.9375L213.973 59.375C215.723 58.8125 217.243 58.1354 218.535 57.3438C219.848 56.5521 220.91 55.6562 221.723 54.6562ZM229.879 66.5C229.879 64.625 229.525 62.9167 228.816 61.375C228.129 59.8333 227.087 58.4375 225.691 57.1875C224.025 58.6667 222.191 59.8958 220.191 60.875C218.191 61.8542 216.014 62.5729 213.66 63.0312L211.816 82.9062C214.212 82.8229 216.441 82.3854 218.504 81.5938C220.566 80.8021 222.483 79.6771 224.254 78.2188C226.15 76.6562 227.556 74.8958 228.473 72.9375C229.41 70.9792 229.879 68.8333 229.879 66.5ZM236.941 71.1875C236.941 70.4583 236.754 69.9062 236.379 69.5312C236.025 69.1562 235.473 68.9688 234.723 68.9688C233.973 68.9688 233.41 69.1562 233.035 69.5312C232.66 69.9062 232.473 70.4583 232.473 71.1875C232.473 71.9375 232.66 72.5 233.035 72.875C233.41 73.2292 233.973 73.4062 234.723 73.4062C235.473 73.4062 236.025 73.2292 236.379 72.875C236.754 72.5 236.941 71.9375 236.941 71.1875ZM234.629 78.5C234.629 77.7292 234.348 77.0625 233.785 76.5C233.243 75.9375 232.566 75.6562 231.754 75.6562C230.941 75.6562 230.254 75.9375 229.691 76.5C229.15 77.0625 228.879 77.7292 228.879 78.5C228.879 79.3125 229.15 80 229.691 80.5625C230.254 81.1042 230.941 81.375 231.754 81.375C232.566 81.375 233.243 81.1042 233.785 80.5625C234.348 80 234.629 79.3125 234.629 78.5ZM227.629 83.2812C227.629 82.5521 227.441 82 227.066 81.625C226.691 81.25 226.129 81.0625 225.379 81.0625C224.65 81.0625 224.098 81.25 223.723 81.625C223.348 82 223.16 82.5521 223.16 83.2812C223.16 84.0312 223.348 84.5938 223.723 84.9688C224.098 85.3438 224.65 85.5312 225.379 85.5312C226.129 85.5312 226.691 85.3438 227.066 84.9688C227.441 84.5938 227.629 84.0312 227.629 83.2812ZM225.379 64.3125C223.483 66.5625 221.775 68.9062 220.254 71.3438C218.733 73.7812 217.389 76.3125 216.223 78.9375L214.379 79C215.337 76.25 216.504 73.5312 217.879 70.8438C219.275 68.1354 220.879 65.4583 222.691 62.8125L225.379 64.3125ZM285.63 65.6875C285.63 73.0833 283.953 78.625 280.599 82.3125C277.265 86 272.234 87.8438 265.505 87.8438C262.234 87.8438 259.411 87.4271 257.036 86.5938C254.661 85.7396 252.734 84.4688 251.255 82.7812C249.88 81.2188 248.849 79.2188 248.161 76.7812C247.474 74.3438 247.13 71.4792 247.13 68.1875C247.13 65.4583 247.443 61.3854 248.068 55.9688C248.713 50.5312 249.036 46.4479 249.036 43.7188C249.036 41.9479 248.901 40.3958 248.63 39.0625C248.38 37.7292 247.995 36.6042 247.474 35.6875L250.13 34.5C251.088 36.3958 251.849 38.5521 252.411 40.9688C252.995 43.3854 253.39 46.0521 253.599 48.9688C253.661 49.8854 253.703 51.6042 253.724 54.125C253.765 56.6458 253.786 59.9688 253.786 64.0938C253.786 66.6354 253.849 68.8021 253.974 70.5938C254.12 72.3646 254.328 73.75 254.599 74.75C255.182 76.8333 256.078 78.3958 257.286 79.4375C258.495 80.4792 260.015 81 261.849 81C263.974 81 265.765 80.6354 267.224 79.9062C268.703 79.1771 269.849 78.0729 270.661 76.5938C271.245 75.5312 271.682 74.1875 271.974 72.5625C272.286 70.9375 272.443 69.0208 272.443 66.8125C272.443 66.3958 272.432 65.8958 272.411 65.3125C272.39 64.7292 272.37 64.0729 272.349 63.3438C272.328 62.5104 272.307 61.8229 272.286 61.2812C272.286 60.7188 272.286 60.2917 272.286 60L277.068 59.625L276.755 55.9375L272.224 56.0938L272.068 52.5938L276.536 52.375L276.411 48.75H272.068L271.911 45.0938L276.411 45.4062V42.0625L271.911 41.6562L271.755 37.9375L284.724 39.2188C285.015 47.7188 285.234 54.1771 285.38 58.5938C285.547 63.0104 285.63 65.375 285.63 65.6875ZM265.974 61.9062C265.974 62.9896 265.588 63.9167 264.818 64.6875C264.068 65.4583 263.161 65.8438 262.099 65.8438C261.015 65.8438 260.099 65.4583 259.349 64.6875C258.62 63.8958 258.255 62.9688 258.255 61.9062C258.255 60.8646 258.62 59.9583 259.349 59.1875C260.099 58.4167 261.015 58.0312 262.099 58.0312C263.161 58.0312 264.068 58.4167 264.818 59.1875C265.588 59.9375 265.974 60.8438 265.974 61.9062Z" fill="url(#paint0_linear_1_67)"/>
</g>
<defs>
<filter id="filter0_d_1_67" x="0" y="0" width="1733" height="128" filterUnits="userSpaceOnUse" color-interpolation-filters="sRGB">
<feFlood flood-opacity="0" result="BackgroundImageFix"/>
<feColorMatrix in="SourceAlpha" type="matrix" values="0 0 0 0 0 0 0 0 0 0 0 0 0 0 0 0 0 0 127 0" result="hardAlpha"/>
<feOffset dy="2"/>
<feGaussianBlur stdDeviation="1"/>
<feComposite in2="hardAlpha" operator="out"/>
<feColorMatrix type="matrix" values="0 0 0 0 0.861333 0 0 0 0 0.870088 0 0 0 0 0.884679 0 0 0 0.2 0"/>
<feBlend mode="normal" in2="BackgroundImageFix" result="effect1_dropShadow_1_67"/>
<feBlend mode="normal" in="SourceGraphic" in2="effect1_dropShadow_1_67" result="shape"/>
</filter>
<linearGradient id="paint0_linear_1_67" x1="212.5" y1="14" x2="212.5" y2="110" gradientUnits="userSpaceOnUse">
<stop stop-color="#1063F4"/>
<stop offset="1" stop-color="#ED7A1B"/>
</linearGradient>
</defs>
</svg>
