<svg width="147" height="62" viewBox="0 0 147 62" fill="none" xmlns="http://www.w3.org/2000/svg">
<path d="M39.25 31.6875C39.25 39.0833 37.5729 44.625 34.2188 48.3125C30.8854 52 25.8542 53.8438 19.125 53.8438C15.8542 53.8438 13.0312 53.4271 10.6562 52.5938C8.28125 51.7396 6.35417 50.4688 4.875 48.7812C3.5 47.2188 2.46875 45.2188 1.78125 42.7812C1.09375 40.3438 0.75 37.4792 0.75 34.1875C0.75 31.4583 1.0625 27.3854 1.6875 21.9688C2.33333 16.5312 2.65625 12.4479 2.65625 9.71875C2.65625 7.94792 2.52083 6.39583 2.25 5.0625C2 3.72917 1.61458 2.60417 1.09375 1.6875L3.75 0.5C4.70833 2.39583 5.46875 4.55208 6.03125 6.96875C6.61458 9.38542 7.01042 12.0521 7.21875 14.9688C7.28125 15.8854 7.32292 17.6042 7.34375 20.125C7.38542 22.6458 7.40625 25.9688 7.40625 30.0938C7.40625 32.6354 7.46875 34.8021 7.59375 36.5938C7.73958 38.3646 7.94792 39.75 8.21875 40.75C8.80208 42.8333 9.69792 44.3958 10.9062 45.4375C12.1146 46.4792 13.6354 47 15.4688 47C17.5938 47 19.3854 46.6354 20.8438 45.9062C22.3229 45.1771 23.4688 44.0729 24.2812 42.5938C24.8646 41.5312 25.3021 40.1875 25.5938 38.5625C25.9062 36.9375 26.0625 35.0208 26.0625 32.8125C26.0625 32.3958 26.0521 31.8958 26.0312 31.3125C26.0104 30.7292 25.9896 30.0729 25.9688 29.3438C25.9479 28.5104 25.9271 27.8229 25.9062 27.2812C25.9062 26.7188 25.9062 26.2917 25.9062 26L30.6875 25.625L30.375 21.9375L25.8438 22.0938L25.6875 18.5938L30.1562 18.375L30.0312 14.75H25.6875L25.5312 11.0938L30.0312 11.4062V8.0625L25.5312 7.65625L25.375 3.9375L38.3438 5.21875C38.6354 13.7188 38.8542 20.1771 39 24.5938C39.1667 29.0104 39.25 31.375 39.25 31.6875ZM19.5938 27.9062C19.5938 28.9896 19.2083 29.9167 18.4375 30.6875C17.6875 31.4583 16.7812 31.8438 15.7188 31.8438C14.6354 31.8438 13.7188 31.4583 12.9688 30.6875C12.2396 29.8958 11.875 28.9688 11.875 27.9062C11.875 26.8646 12.2396 25.9583 12.9688 25.1875C13.7188 24.4167 14.6354 24.0312 15.7188 24.0312C16.7812 24.0312 17.6875 24.4167 18.4375 25.1875C19.2083 25.9375 19.5938 26.8438 19.5938 27.9062ZM68.6263 30C68.6263 31.7292 68.2513 33.0208 67.5013 33.875C66.7513 34.7083 65.6263 35.125 64.1263 35.125C62.7721 35.125 61.7513 34.875 61.0638 34.375C60.3971 33.8542 60.0638 33.0833 60.0638 32.0625C60.0638 31.5625 60.1992 31.1146 60.47 30.7188C60.7408 30.3021 61.1471 29.9479 61.6888 29.6562L62.595 30.3125C62.4492 30.4792 62.3346 30.6458 62.2513 30.8125C62.1679 30.9583 62.1263 31.1042 62.1263 31.25C62.1263 31.6667 62.2513 31.9792 62.5013 32.1875C62.7513 32.375 63.1158 32.4688 63.595 32.4688C64.2617 32.4688 64.7513 32.3125 65.0638 32C65.3763 31.6667 65.5325 31.1562 65.5325 30.4688C65.5325 29.9271 65.3867 29.4375 65.095 29C64.8242 28.5625 64.4075 28.1875 63.845 27.875C63.4075 27.625 62.9179 27.4375 62.3763 27.3125C61.8554 27.1875 61.2825 27.125 60.6575 27.125C59.8658 27.125 59.1471 27.2292 58.5013 27.4375C57.8763 27.625 57.2825 27.9167 56.72 28.3125C56.1158 28.75 55.6679 29.2708 55.3763 29.875C55.0846 30.4792 54.9388 31.1562 54.9388 31.9062C54.9388 32.6354 55.22 33.3542 55.7825 34.0625C56.345 34.75 57.1679 35.4375 58.2513 36.125C60.2096 37.375 61.6992 38.3229 62.72 38.9688C63.7617 39.6146 64.3138 39.9688 64.3763 40.0312C65.5013 40.9688 66.3346 41.9896 66.8763 43.0938C67.4179 44.1771 67.6888 45.375 67.6888 46.6875C67.6888 48.4375 67.3554 50.0208 66.6888 51.4375C66.0429 52.8542 65.0429 54.0833 63.6888 55.125C62.4596 56.0833 61.0742 56.8125 59.5325 57.3125C58.0117 57.8125 56.345 58.0625 54.5325 58.0625C53.345 58.0625 52.2096 57.9167 51.1263 57.625C50.0429 57.3542 48.9908 56.9375 47.97 56.375C46.9283 55.8125 46.0117 55.125 45.22 54.3125C44.4492 53.5 43.8033 52.5729 43.2825 51.5312L45.595 49.375C46.5533 51.1667 47.7304 52.5 49.1263 53.375C50.5221 54.25 52.1263 54.6875 53.9388 54.6875C55.5846 54.6875 56.9283 54.2083 57.97 53.25C59.0325 52.2708 59.5638 50.9792 59.5638 49.375C59.5638 48.3333 59.3242 47.3229 58.845 46.3438C58.3867 45.3438 57.6783 44.375 56.72 43.4375C55.845 42.6667 54.9596 41.8958 54.0638 41.125C53.1679 40.3542 52.2721 39.5833 51.3763 38.8125C50.4388 37.8542 49.7304 36.8542 49.2513 35.8125C48.7721 34.7708 48.5325 33.6771 48.5325 32.5312C48.5325 31.1354 48.8346 29.8854 49.4388 28.7812C50.0429 27.6771 50.9283 26.7083 52.095 25.875C53.1158 25.1458 54.2513 24.6146 55.5013 24.2812C56.7721 23.9479 58.1471 23.7812 59.6263 23.7812C60.8554 23.7812 61.97 23.8958 62.97 24.125C63.97 24.3333 64.8554 24.6458 65.6263 25.0625C66.6471 25.6042 67.3971 26.2917 67.8763 27.125C68.3763 27.9583 68.6263 28.9167 68.6263 30ZM51.8763 44.1875C51.8763 45.25 51.5013 46.1562 50.7513 46.9062C50.0013 47.6354 49.1054 48 48.0638 48C47.0221 48 46.1263 47.625 45.3763 46.875C44.6263 46.125 44.2513 45.2292 44.2513 44.1875C44.2513 43.1458 44.6263 42.25 45.3763 41.5C46.1263 40.75 47.0221 40.375 48.0638 40.375C49.1054 40.375 50.0013 40.75 50.7513 41.5C51.5013 42.25 51.8763 43.1458 51.8763 44.1875ZM106.409 51.625C105.888 52.1458 105.419 52.6146 105.003 53.0312C104.586 53.4271 104.221 53.75 103.909 54L106.253 57.5L104.065 58.7812L101.69 55.8438C100.857 56.3438 99.9713 56.7604 99.0338 57.0938C98.0963 57.4479 97.0963 57.6875 96.0338 57.8125L95.9713 61.5L93.1588 61.3125L93.4088 57.9062C92.4504 57.9062 91.4296 57.8021 90.3463 57.5938C89.2629 57.4062 88.1275 57.1146 86.94 56.7188L85.19 60.4688L82.3775 58.9375L84.2838 55.4375C83.2629 54.875 82.3254 54.2292 81.4713 53.5C80.6379 52.75 79.8983 51.9062 79.2525 50.9688L75.9088 53.0938L74.5025 50.875L78.1588 48.9688C77.6796 47.9688 77.3046 46.9479 77.0338 45.9062C76.7629 44.8438 76.5858 43.7604 76.5025 42.6562L73.1588 43.5L72.19 40.75L76.5025 39.7812C76.6067 38.6146 76.7838 37.5625 77.0338 36.625C77.2838 35.6875 77.6067 34.8542 78.0025 34.125L74.9713 32.3125L76.4088 29.9375L79.3775 32C79.8983 31.3542 80.4608 30.7708 81.065 30.25C81.69 29.7292 82.3463 29.2708 83.0338 28.875L80.4713 25.1562L83.2838 23.7812L85.3463 27.75C86.0129 27.5417 86.6171 27.375 87.1588 27.25C87.7004 27.125 88.1796 27.0312 88.5963 26.9688L89.44 22.875L91.6588 23.5625L91.0963 26.8125C91.9296 26.8125 92.7213 26.9167 93.4713 27.125C94.2213 27.3333 94.94 27.6458 95.6275 28.0625L98.7213 25L100.471 26.4688L97.5338 29.6562C97.9921 30.0938 98.4192 30.625 98.815 31.25C99.2108 31.8542 99.565 32.5312 99.8775 33.2812L103.534 32.0625L104.159 34.375L100.628 35.5938C100.794 36.0521 100.93 36.5521 101.034 37.0938C101.159 37.6354 101.273 38.2188 101.378 38.8438L86.8463 41.375V41.7188C86.8463 43.2396 87.0025 44.6771 87.315 46.0312C87.6483 47.3646 88.1483 48.6354 88.815 49.8438C89.6067 51.2812 90.5546 52.3646 91.6588 53.0938C92.7629 53.8021 94.0025 54.1562 95.3775 54.1562C96.7942 54.1562 98.2838 53.7812 99.8463 53.0312C101.409 52.2812 103.065 51.1354 104.815 49.5938L106.409 51.625ZM93.6275 36.2812C93.5442 35.3646 93.2004 34.6771 92.5963 34.2188C92.0129 33.7604 91.1692 33.5312 90.065 33.5312C88.7108 33.5312 87.4504 33.9375 86.2838 34.75C85.1171 35.5625 84.3254 36.6042 83.9088 37.875L93.6275 36.2812ZM126.879 0.5L120.504 54L110.598 53.0312L111.066 50.1875L114.91 50.7188L115.066 45L110.691 44.7188L110.91 42.125L115.066 42.1875L115.16 36.7188L110.598 36.5312L110.91 34.2188H115.223L115.316 28.2188L110.379 27.9062L110.691 24.7812L115.379 25.625V20.5L110.691 19.9688L111.066 17.4062L115.473 17.3125L115.535 11.9062L110.441 11.6562L111.004 8.71875L115.535 9.1875L115.691 4.09375L110.285 3.6875L110.691 0.5H126.879ZM146.974 0.5L140.599 54L130.693 53.0312L131.161 50.1875L135.005 50.7188L135.161 45L130.786 44.7188L131.005 42.125L135.161 42.1875L135.255 36.7188L130.693 36.5312L131.005 34.2188H135.318L135.411 28.2188L130.474 27.9062L130.786 24.7812L135.474 25.625V20.5L130.786 19.9688L131.161 17.4062L135.568 17.3125L135.63 11.9062L130.536 11.6562L131.099 8.71875L135.63 9.1875L135.786 4.09375L130.38 3.6875L130.786 0.5H146.974Z" fill="url(#paint0_linear_1_68)"/>
<defs>
<linearGradient id="paint0_linear_1_68" x1="72.5" y1="-20" x2="72.5" y2="76" gradientUnits="userSpaceOnUse">
<stop stop-color="#1063F4"/>
<stop offset="1" stop-color="#ED7A1B"/>
</linearGradient>
</defs>
</svg>
